<svg width="24" height="24" viewBox="0 0 24 24" fill="none" xmlns="http://www.w3.org/2000/svg">
<path d="M16.5 21.375H7.5C4.812 21.375 2.625 19.188 2.625 16.5V7.5C2.625 4.812 4.812 2.625 7.5 2.625H16.5C19.188 2.625 21.375 4.812 21.375 7.5V16.5C21.375 19.188 19.188 21.375 16.5 21.375ZM7.5 3.375C5.22562 3.375 3.375 5.22562 3.375 7.5V16.5C3.375 18.7744 5.22562 20.625 7.5 20.625H16.5C18.7744 20.625 20.625 18.7744 20.625 16.5V7.5C20.625 5.22562 18.7744 3.375 16.5 3.375H7.5Z" fill="url(#paint0_linear)"/>
<path d="M12 16.875C9.312 16.875 7.125 14.688 7.125 12C7.125 9.312 9.312 7.125 12 7.125C14.688 7.125 16.875 9.312 16.875 12C16.875 14.688 14.688 16.875 12 16.875ZM12 8.625C10.1393 8.625 8.625 10.1393 8.625 12C8.625 13.8611 10.1393 15.375 12 15.375C13.8611 15.375 15.375 13.8611 15.375 12C15.375 10.1393 13.8611 8.625 12 8.625Z" fill="url(#paint1_linear)"/>
<path d="M17.25 5.625C16.9516 5.625 16.6655 5.74353 16.4545 5.9545C16.2435 6.16548 16.125 6.45163 16.125 6.75C16.125 7.04837 16.2435 7.33452 16.4545 7.5455C16.6655 7.75647 16.9516 7.875 17.25 7.875C17.5484 7.875 17.8345 7.75647 18.0455 7.5455C18.2565 7.33452 18.375 7.04837 18.375 6.75C18.375 6.45163 18.2565 6.16548 18.0455 5.9545C17.8345 5.74353 17.5484 5.625 17.25 5.625Z" fill="url(#paint2_linear)"/>
<defs>
<linearGradient id="paint0_linear" x1="12" y1="2.50013" x2="12" y2="21.702" gradientUnits="userSpaceOnUse">
<stop stop-color="#BC9CFF"/>
<stop offset="1" stop-color="#8BA4F9"/>
</linearGradient>
<linearGradient id="paint1_linear" x1="12" y1="6.81263" x2="12" y2="17.1296" gradientUnits="userSpaceOnUse">
<stop stop-color="#BC9CFF"/>
<stop offset="1" stop-color="#8BA4F9"/>
</linearGradient>
<linearGradient id="paint2_linear" x1="17.25" y1="4.78125" x2="17.25" y2="8.64338" gradientUnits="userSpaceOnUse">
<stop stop-color="#BC9CFF"/>
<stop offset="1" stop-color="#8BA4F9"/>
</linearGradient>
</defs>
</svg>
