<svg width="25" height="25" viewBox="0 0 25 25" fill="none" xmlns="http://www.w3.org/2000/svg">
<path d="M7.55173 24.7373C16.609 24.7373 21.5622 15.504 21.5622 7.49816C21.5622 7.23607 21.5577 6.9749 21.5479 6.71465C22.5095 5.85916 23.345 4.79232 24.0042 3.57784C23.1222 4.06049 22.1727 4.38534 21.1767 4.53208C22.1929 3.78179 22.9737 2.59498 23.342 1.18023C22.3902 1.87423 21.3372 2.37903 20.2151 2.65128C19.3166 1.4737 18.0371 0.737259 16.621 0.737259C13.9014 0.737259 11.6964 3.45048 11.6964 6.79586C11.6964 7.27114 11.7399 7.73349 11.8239 8.17739C7.73173 7.92452 4.10237 5.51308 1.67454 1.84747C1.25153 2.74264 1.00777 3.78271 1.00777 4.89292C1.00777 6.9952 1.87705 8.85108 3.19934 9.93637C2.39156 9.90591 1.63254 9.63274 0.968773 9.1787C0.968023 9.20361 0.968022 9.22945 0.968022 9.25622C0.968022 12.1909 2.66532 14.6402 4.91839 15.1958C4.50513 15.3342 4.06937 15.409 3.6201 15.409C3.30284 15.409 2.99458 15.3702 2.69457 15.3001C3.32159 17.7069 5.1389 19.4585 7.29447 19.5083C5.60917 21.1335 3.48585 22.1016 1.17878 22.1016C0.781266 22.1016 0.389754 22.0739 0.00424194 22.0176C2.18306 23.7341 4.77064 24.7373 7.55173 24.7373Z" fill="url(#paint0_linear)"/>
<defs>
<linearGradient id="paint0_linear" x1="12.0039" y1="-1.79785" x2="12.0039" y2="27.791" gradientUnits="userSpaceOnUse">
<stop stop-color="#BC9CFF"/>
<stop offset="1" stop-color="#8BA4F9"/>
</linearGradient>
</defs>
</svg>
